<svg width="17" height="21" viewBox="0 0 17 21" fill="none" xmlns="http://www.w3.org/2000/svg">
<path d="M15.4545 0.787888H1.54545C1.13557 0.787888 0.742482 0.950712 0.452653 1.24054C0.162824 1.53037 0 1.92346 0 2.33334V19.3333C0 19.7432 0.162824 20.1363 0.452653 20.4261C0.742482 20.716 1.13557 20.8788 1.54545 20.8788H15.4545C15.8644 20.8788 16.2575 20.716 16.5473 20.4261C16.8372 20.1363 17 19.7432 17 19.3333V2.33334C17 1.92346 16.8372 1.53037 16.5473 1.24054C16.2575 0.950712 15.8644 0.787888 15.4545 0.787888ZM4.63636 17.7879C4.40712 17.7879 4.18302 17.7199 3.99241 17.5925C3.8018 17.4652 3.65323 17.2842 3.5655 17.0724C3.47777 16.8606 3.45482 16.6275 3.49954 16.4027C3.54427 16.1778 3.65466 15.9713 3.81676 15.8092C3.97886 15.6471 4.18539 15.5367 4.41024 15.492C4.63508 15.4473 4.86813 15.4702 5.07993 15.5579C5.29172 15.6457 5.47275 15.7942 5.60011 15.9848C5.72748 16.1755 5.79545 16.3995 5.79545 16.6288C5.79545 16.9362 5.67334 17.231 5.45596 17.4484C5.23859 17.6658 4.94377 17.7879 4.63636 17.7879ZM4.63636 13.9243C4.40712 13.9243 4.18302 13.8563 3.99241 13.7289C3.8018 13.6015 3.65323 13.4205 3.5655 13.2087C3.47777 12.9969 3.45482 12.7639 3.49954 12.539C3.54427 12.3142 3.65466 12.1077 3.81676 11.9456C3.97886 11.7835 4.18539 11.6731 4.41024 11.6283C4.63508 11.5836 4.86813 11.6066 5.07993 11.6943C5.29172 11.782 5.47275 11.9306 5.60011 12.1212C5.72748 12.3118 5.79545 12.5359 5.79545 12.7652C5.79545 13.0726 5.67334 13.3674 5.45596 13.5848C5.23859 13.8021 4.94377 13.9243 4.63636 13.9243ZM8.5 17.7879C8.27075 17.7879 8.04666 17.7199 7.85604 17.5925C7.66543 17.4652 7.51687 17.2842 7.42914 17.0724C7.34141 16.8606 7.31846 16.6275 7.36318 16.4027C7.4079 16.1778 7.5183 15.9713 7.6804 15.8092C7.8425 15.6471 8.04903 15.5367 8.27387 15.492C8.49871 15.4473 8.73177 15.4702 8.94356 15.5579C9.15536 15.6457 9.33639 15.7942 9.46375 15.9848C9.59111 16.1755 9.65909 16.3995 9.65909 16.6288C9.65909 16.9362 9.53697 17.231 9.3196 17.4484C9.10223 17.6658 8.80741 17.7879 8.5 17.7879ZM8.5 13.9243C8.27075 13.9243 8.04666 13.8563 7.85604 13.7289C7.66543 13.6015 7.51687 13.4205 7.42914 13.2087C7.34141 12.9969 7.31846 12.7639 7.36318 12.539C7.4079 12.3142 7.5183 12.1077 7.6804 11.9456C7.8425 11.7835 8.04903 11.6731 8.27387 11.6283C8.49871 11.5836 8.73177 11.6066 8.94356 11.6943C9.15536 11.782 9.33639 11.9306 9.46375 12.1212C9.59111 12.3118 9.65909 12.5359 9.65909 12.7652C9.65909 13.0726 9.53697 13.3674 9.3196 13.5848C9.10223 13.8021 8.80741 13.9243 8.5 13.9243ZM12.3636 17.7879C12.1344 17.7879 11.9103 17.7199 11.7197 17.5925C11.5291 17.4652 11.3805 17.2842 11.2928 17.0724C11.205 16.8606 11.1821 16.6275 11.2268 16.4027C11.2715 16.1778 11.3819 15.9713 11.544 15.8092C11.7061 15.6471 11.9127 15.5367 12.1375 15.492C12.3624 15.4473 12.5954 15.4702 12.8072 15.5579C13.019 15.6457 13.2 15.7942 13.3274 15.9848C13.4547 16.1755 13.5227 16.3995 13.5227 16.6288C13.5227 16.9362 13.4006 17.231 13.1832 17.4484C12.9659 17.6658 12.671 17.7879 12.3636 17.7879ZM12.3636 13.9243C12.1344 13.9243 11.9103 13.8563 11.7197 13.7289C11.5291 13.6015 11.3805 13.4205 11.2928 13.2087C11.205 12.9969 11.1821 12.7639 11.2268 12.539C11.2715 12.3142 11.3819 12.1077 11.544 11.9456C11.7061 11.7835 11.9127 11.6731 12.1375 11.6283C12.3624 11.5836 12.5954 11.6066 12.8072 11.6943C13.019 11.782 13.2 11.9306 13.3274 12.1212C13.4547 12.3118 13.5227 12.5359 13.5227 12.7652C13.5227 13.0726 13.4006 13.3674 13.1832 13.5848C12.9659 13.8021 12.671 13.9243 12.3636 13.9243ZM13.9091 8.51516C13.9091 8.7201 13.8277 8.91665 13.6828 9.06156C13.5379 9.20648 13.3413 9.28789 13.1364 9.28789H3.86364C3.6587 9.28789 3.46215 9.20648 3.31724 9.06156C3.17232 8.91665 3.09091 8.7201 3.09091 8.51516V4.65152C3.09091 4.44658 3.17232 4.25004 3.31724 4.10512C3.46215 3.96021 3.6587 3.8788 3.86364 3.8788H13.1364C13.3413 3.8788 13.5379 3.96021 13.6828 4.10512C13.8277 4.25004 13.9091 4.44658 13.9091 4.65152V8.51516Z" fill="white"/>
</svg>
