<svg width="17" height="21" viewBox="0 0 17 21" fill="none" xmlns="http://www.w3.org/2000/svg">
<path d="M15.4545 0.454559H1.54545C1.13557 0.454559 0.742482 0.617383 0.452653 0.907212C0.162824 1.19704 0 1.59013 0 2.00001V19C0 19.4099 0.162824 19.803 0.452653 20.0928C0.742482 20.3826 1.13557 20.5455 1.54545 20.5455H15.4545C15.8644 20.5455 16.2575 20.3826 16.5473 20.0928C16.8372 19.803 17 19.4099 17 19V2.00001C17 1.59013 16.8372 1.19704 16.5473 0.907212C16.2575 0.617383 15.8644 0.454559 15.4545 0.454559ZM4.63636 17.4546C4.40712 17.4546 4.18302 17.3866 3.99241 17.2592C3.8018 17.1319 3.65323 16.9508 3.5655 16.739C3.47777 16.5272 3.45482 16.2942 3.49954 16.0693C3.54427 15.8445 3.65466 15.638 3.81676 15.4759C3.97886 15.3138 4.18539 15.2034 4.41024 15.1586C4.63508 15.1139 4.86813 15.1369 5.07993 15.2246C5.29172 15.3123 5.47275 15.4609 5.60011 15.6515C5.72748 15.8421 5.79545 16.0662 5.79545 16.2955C5.79545 16.6029 5.67334 16.8977 5.45596 17.1151C5.23859 17.3324 4.94377 17.4546 4.63636 17.4546ZM4.63636 13.5909C4.40712 13.5909 4.18302 13.5229 3.99241 13.3956C3.8018 13.2682 3.65323 13.0872 3.5655 12.8754C3.47777 12.6636 3.45482 12.4305 3.49954 12.2057C3.54427 11.9809 3.65466 11.7743 3.81676 11.6122C3.97886 11.4501 4.18539 11.3397 4.41024 11.295C4.63508 11.2503 4.86813 11.2732 5.07993 11.361C5.29172 11.4487 5.47275 11.5973 5.60011 11.7879C5.72748 11.9785 5.79545 12.2026 5.79545 12.4318C5.79545 12.7392 5.67334 13.0341 5.45596 13.2514C5.23859 13.4688 4.94377 13.5909 4.63636 13.5909ZM8.5 17.4546C8.27075 17.4546 8.04666 17.3866 7.85604 17.2592C7.66543 17.1319 7.51687 16.9508 7.42914 16.739C7.34141 16.5272 7.31846 16.2942 7.36318 16.0693C7.4079 15.8445 7.5183 15.638 7.6804 15.4759C7.8425 15.3138 8.04903 15.2034 8.27387 15.1586C8.49871 15.1139 8.73177 15.1369 8.94356 15.2246C9.15536 15.3123 9.33639 15.4609 9.46375 15.6515C9.59111 15.8421 9.65909 16.0662 9.65909 16.2955C9.65909 16.6029 9.53697 16.8977 9.3196 17.1151C9.10223 17.3324 8.80741 17.4546 8.5 17.4546ZM8.5 13.5909C8.27075 13.5909 8.04666 13.5229 7.85604 13.3956C7.66543 13.2682 7.51687 13.0872 7.42914 12.8754C7.34141 12.6636 7.31846 12.4305 7.36318 12.2057C7.4079 11.9809 7.5183 11.7743 7.6804 11.6122C7.8425 11.4501 8.04903 11.3397 8.27387 11.295C8.49871 11.2503 8.73177 11.2732 8.94356 11.361C9.15536 11.4487 9.33639 11.5973 9.46375 11.7879C9.59111 11.9785 9.65909 12.2026 9.65909 12.4318C9.65909 12.7392 9.53697 13.0341 9.3196 13.2514C9.10223 13.4688 8.80741 13.5909 8.5 13.5909ZM12.3636 17.4546C12.1344 17.4546 11.9103 17.3866 11.7197 17.2592C11.5291 17.1319 11.3805 16.9508 11.2928 16.739C11.205 16.5272 11.1821 16.2942 11.2268 16.0693C11.2715 15.8445 11.3819 15.638 11.544 15.4759C11.7061 15.3138 11.9127 15.2034 12.1375 15.1586C12.3624 15.1139 12.5954 15.1369 12.8072 15.2246C13.019 15.3123 13.2 15.4609 13.3274 15.6515C13.4547 15.8421 13.5227 16.0662 13.5227 16.2955C13.5227 16.6029 13.4006 16.8977 13.1832 17.1151C12.9659 17.3324 12.671 17.4546 12.3636 17.4546ZM12.3636 13.5909C12.1344 13.5909 11.9103 13.5229 11.7197 13.3956C11.5291 13.2682 11.3805 13.0872 11.2928 12.8754C11.205 12.6636 11.1821 12.4305 11.2268 12.2057C11.2715 11.9809 11.3819 11.7743 11.544 11.6122C11.7061 11.4501 11.9127 11.3397 12.1375 11.295C12.3624 11.2503 12.5954 11.2732 12.8072 11.361C13.019 11.4487 13.2 11.5973 13.3274 11.7879C13.4547 11.9785 13.5227 12.2026 13.5227 12.4318C13.5227 12.7392 13.4006 13.0341 13.1832 13.2514C12.9659 13.4688 12.671 13.5909 12.3636 13.5909ZM13.9091 8.18183C13.9091 8.38677 13.8277 8.58332 13.6828 8.72823C13.5379 8.87315 13.3413 8.95456 13.1364 8.95456H3.86364C3.6587 8.95456 3.46215 8.87315 3.31724 8.72823C3.17232 8.58332 3.09091 8.38677 3.09091 8.18183V4.3182C3.09091 4.11326 3.17232 3.91671 3.31724 3.7718C3.46215 3.62688 3.6587 3.54547 3.86364 3.54547H13.1364C13.3413 3.54547 13.5379 3.62688 13.6828 3.7718C13.8277 3.91671 13.9091 4.11326 13.9091 4.3182V8.18183Z" fill="#176B87"/>
</svg>
