<svg width="20" height="21" viewBox="0 0 20 21" fill="none" xmlns="http://www.w3.org/2000/svg">
<path d="M10 13C11.3807 13 12.5 11.8807 12.5 10.5C12.5 9.11929 11.3807 8 10 8C8.61929 8 7.5 9.11929 7.5 10.5C7.5 11.8807 8.61929 13 10 13Z" fill="#176B87"/>
<path d="M19.3375 10.2875C18.6024 8.38603 17.3262 6.74164 15.6667 5.55755C14.0072 4.37347 12.0372 3.70161 9.99998 3.625C7.9628 3.70161 5.99272 4.37347 4.33323 5.55755C2.67374 6.74164 1.39758 8.38603 0.662478 10.2875C0.612833 10.4248 0.612833 10.5752 0.662478 10.7125C1.39758 12.614 2.67374 14.2584 4.33323 15.4424C5.99272 16.6265 7.9628 17.2984 9.99998 17.375C12.0372 17.2984 14.0072 16.6265 15.6667 15.4424C17.3262 14.2584 18.6024 12.614 19.3375 10.7125C19.3871 10.5752 19.3871 10.4248 19.3375 10.2875ZM9.99998 14.5625C9.19649 14.5625 8.41105 14.3242 7.74298 13.8778C7.0749 13.4315 6.5542 12.797 6.24672 12.0547C5.93924 11.3123 5.85879 10.4955 6.01554 9.70745C6.17229 8.9194 6.55921 8.19553 7.12736 7.62738C7.69551 7.05923 8.41938 6.67231 9.20742 6.51556C9.99547 6.35881 10.8123 6.43926 11.5546 6.74674C12.297 7.05422 12.9314 7.57492 13.3778 8.243C13.8242 8.91107 14.0625 9.69651 14.0625 10.5C14.0608 11.5769 13.6323 12.6093 12.8708 13.3708C12.1093 14.1323 11.0769 14.5608 9.99998 14.5625Z" fill="#176B87"/>
</svg>
