<svg width="26" height="26" viewBox="0 0 26 26" fill="none" xmlns="http://www.w3.org/2000/svg">
<path d="M13 1.625C8.51449 1.625 4.875 4.9009 4.875 8.9375C4.875 15.4375 13 24.375 13 24.375C13 24.375 21.125 15.4375 21.125 8.9375C21.125 4.9009 17.4855 1.625 13 1.625ZM13 13C12.3572 13 11.7289 12.8094 11.1944 12.4523C10.6599 12.0952 10.2434 11.5876 9.99739 10.9937C9.75141 10.3999 9.68705 9.7464 9.81245 9.11596C9.93785 8.48552 10.2474 7.90642 10.7019 7.4519C11.1564 6.99738 11.7355 6.68785 12.366 6.56245C12.9964 6.43705 13.6499 6.50141 14.2437 6.74739C14.8376 6.99338 15.3452 7.40994 15.7023 7.9444C16.0594 8.47886 16.25 9.10721 16.25 9.75C16.2491 10.6117 15.9063 11.4378 15.2971 12.0471C14.6878 12.6563 13.8617 12.9991 13 13Z" fill="white"/>
</svg>
