<svg width="171" height="94" viewBox="0 0 171 94" fill="none" xmlns="http://www.w3.org/2000/svg">
<g id="Group 63">
<ellipse id="Ellipse 5" cx="85" cy="47" rx="46.2061" ry="47" fill="#176B87"/>
<g id="Group 50">
<path id="Vector 1" d="M170.5 47.5C142.973 47.5 124 22.5 121.5 18C127.5 30 131 44.5 131 48L170.5 47.5Z" fill="#176B87"/>
<path id="Vector 2" d="M170 47.5C146.089 47.5 128 65 125 70.5C130 60 130 50.5196 130 47.5H170Z" fill="#176B87"/>
</g>
<g id="Group 51">
<path id="Vector 1_2" d="M0 47.5C27.527 47.5 46.5 22.5 49 18C43 30 39.5 44 39.5 47.5H0Z" fill="#176B87"/>
<path id="Vector 2_2" d="M0.5 47.5C24.4112 47.5 42.5 65.5 45.5 71C40.5 60.5 40.5 50.0196 40.5 47L0.5 47.5Z" fill="#176B87"/>
</g>
</g>
</svg>
