<svg width="171" height="94" viewBox="0 0 171 94" fill="none" xmlns="http://www.w3.org/2000/svg">
<ellipse cx="85" cy="47" rx="46.2061" ry="47" fill="#176B87"/>
<path d="M170.5 47C142.973 47 124 22.5 121.5 18C127.5 30 131 43.5 131 47H170.5Z" fill="#176B87"/>
<path d="M170 48C146.089 48 128 65 125 70.5C130 60 129.918 51.0196 129.918 48H170Z" fill="#176B87"/>
<path d="M0 47C27.527 47 46.5 22.5 49 18C43 30 39.5 43.5 39.5 47H0Z" fill="#176B87"/>
<path d="M0.5 48C24.4112 48 42.5 65.5 45.5 71C40.5 60.5 40.5817 51.0196 40.5817 48H0.5Z" fill="#176B87"/>
</svg>
