<svg width="68" height="61" viewBox="0 0 68 61" fill="none" xmlns="http://www.w3.org/2000/svg">
<g clip-path="url(#clip0_23_4)">
<path fill-rule="evenodd" clip-rule="evenodd" d="M1.0174 13.1728L33.9807 0L66.944 13.1728L33.9807 2.02658L1.0174 13.1728ZM1.0174 44.7874L33.9807 61L66.944 43.7741L33.9807 58.9734L1.0174 44.7874Z" fill="#FB9C2A"/>
<path d="M40.4914 23.6326H39.6874V16.859C39.6874 16.7803 39.6347 16.7278 39.5688 16.7015L33.1369 15.1C33.0842 15.0869 33.0446 15.1 33.0051 15.1263C32.9655 15.1525 32.9392 15.205 32.9392 15.2575V15.4544L31.5289 15.1C31.4762 15.0869 31.4366 15.1 31.3971 15.1263C31.3576 15.1525 31.3312 15.205 31.3312 15.2575V16.0977L29.9209 15.7432C29.8682 15.7301 29.8287 15.7432 29.7891 15.7695C29.7496 15.7957 29.7232 15.8482 29.7232 15.9008V21.506H27.6276C27.5353 21.506 27.4694 21.5716 27.4694 21.6635V23.8033C27.4694 23.8951 27.5353 23.9608 27.6276 23.9608H30.6854V25.7723H27.6276C27.5353 25.7723 27.4694 25.8379 27.4694 25.9298V28.0696C27.4694 28.1614 27.5353 28.2271 27.6276 28.2271H34.0595H37.2755H40.4914C40.5837 28.2271 40.6496 28.1614 40.6496 28.0696V25.9298V23.8033C40.6496 23.7114 40.5837 23.6326 40.4914 23.6326ZM40.3332 25.7723H37.2755H34.2177V23.9608H37.2755H40.3332V25.7723ZM31.0017 21.8211H37.1041V23.6326H34.0595H31.0017V21.8211ZM33.2555 18.9725L36.1551 19.4844V21.506H33.2555V18.9725ZM37.4336 23.6326V21.6635C37.4336 21.5716 37.3677 21.506 37.2755 21.506H36.4715V19.537L39.3711 20.0489V23.6326H37.4336ZM39.3579 19.7207L36.4583 19.2088V16.2683L39.3579 16.9903V19.7207ZM36.1551 16.1895V19.1694L33.2555 18.6574V15.4676L36.1551 16.1895ZM32.9392 15.7826V21.506H31.6475V15.4676L32.9392 15.7826ZM30.0396 16.1108L31.3312 16.4258V21.506H30.8435H30.0396V16.1108ZM27.7857 21.8211H30.6854V23.6326H27.7857V21.8211ZM31.0017 23.9608H33.9013V25.7723H31.0017V23.9608ZM27.7857 26.0874H30.8435H33.9013V27.8989H27.7857V26.0874ZM34.2177 26.0874H37.1173V27.8989H34.2177V26.0874ZM40.3332 27.912H37.4336V26.0874H40.3332V27.912Z" fill="url(#paint0_linear_23_4)"/>
<path d="M7.10254 37.4907H5.39307V36.8008H7.10254C7.43359 36.8008 7.70166 36.748 7.90674 36.6426C8.11182 36.5371 8.26123 36.3906 8.35498 36.2031C8.45166 36.0156 8.5 35.8018 8.5 35.5615C8.5 35.3418 8.45166 35.1353 8.35498 34.9419C8.26123 34.7485 8.11182 34.5933 7.90674 34.4761C7.70166 34.356 7.43359 34.2959 7.10254 34.2959H5.59082V40H4.74268V33.6016H7.10254C7.58594 33.6016 7.99463 33.6851 8.32861 33.8521C8.6626 34.019 8.91602 34.2505 9.08887 34.5464C9.26172 34.8394 9.34814 35.1748 9.34814 35.5527C9.34814 35.9629 9.26172 36.313 9.08887 36.603C8.91602 36.8931 8.6626 37.1143 8.32861 37.2666C7.99463 37.416 7.58594 37.4907 7.10254 37.4907ZM11.3037 38.5322L14.4546 33.6016H15.3027V40H14.4546V35.0649L11.3037 40H10.46V33.6016H11.3037V38.5322ZM17.1133 33.6016H17.9351L20.0312 38.8179L22.123 33.6016H22.9492L20.3477 40H19.7061L17.1133 33.6016ZM16.8452 33.6016H17.5703L17.689 37.5039V40H16.8452V33.6016ZM22.4878 33.6016H23.2129V40H22.3691V37.5039L22.4878 33.6016ZM31.9756 33.6016V40H30.6572V34.6343H28.0864V40H26.7681V33.6016H31.9756ZM37.394 33.6016V34.6343H34.2124V33.6016H37.394ZM38.3345 33.6016V40H37.0161V33.6016H38.3345ZM34.0454 33.6016H35.3594L35.1968 36.814C35.1733 37.2944 35.1279 37.7119 35.0605 38.0664C34.9961 38.4209 34.9082 38.7227 34.7969 38.9717C34.6855 39.2178 34.5479 39.417 34.3838 39.5693C34.2227 39.7188 34.0322 39.8286 33.8125 39.8989C33.5928 39.9663 33.3423 40 33.061 40H32.7358V38.9717L32.9028 38.9585C33.0464 38.9438 33.1724 38.9058 33.2808 38.8442C33.3892 38.7827 33.4814 38.6904 33.5576 38.5674C33.6367 38.4443 33.7012 38.2876 33.751 38.0972C33.8037 37.9038 33.8447 37.668 33.874 37.3896C33.9062 37.1113 33.9282 36.7861 33.9399 36.4141L34.0454 33.6016ZM40.7515 37.9258L43.3223 33.6016H44.6406V40H43.3223V35.6758L40.7515 40H39.4331V33.6016H40.7515V37.9258ZM48.5122 33.6016V40H47.1982V33.6016H48.5122ZM50.481 33.6016V34.6343H45.2603V33.6016H50.481ZM52.5552 33.6016V40H51.2368V33.6016H52.5552ZM56.3257 33.6016L53.8735 37.3589H52.2607L52.0938 36.1855H53.1704L54.7261 33.6016H56.3257ZM54.9678 40L53.1748 37.1392L54.0889 36.1987L56.5322 40H54.9678ZM59.6523 34.6958L57.9121 40H56.5103L58.8877 33.6016H59.7798L59.6523 34.6958ZM61.0981 40L59.3535 34.6958L59.2129 33.6016H60.1138L62.5044 40H61.0981ZM61.019 37.6182V38.6509H57.6396V37.6182H61.019Z" fill="white"/>
</g>
<defs>
<linearGradient id="paint0_linear_23_4" x1="27.4694" y1="15.0948" x2="40.6496" y2="15.0948" gradientUnits="userSpaceOnUse">
<stop stop-color="white"/>
<stop offset="1" stop-color="#B1EAFF"/>
</linearGradient>
<clipPath id="clip0_23_4">
<rect width="68" height="61" fill="white"/>
</clipPath>
</defs>
</svg>
