<svg width="54" height="54" viewBox="0 0 54 54" fill="none" xmlns="http://www.w3.org/2000/svg">
<circle cx="27" cy="27" r="26.5" transform="rotate(180 27 27)" stroke="white"/>
<g clip-path="url(#clip0_33_27)">
<path fill-rule="evenodd" clip-rule="evenodd" d="M20.4026 29.1424C20.1448 28.8845 20 28.5349 20 28.1703C20 27.8057 20.1448 27.456 20.4026 27.1981L28.181 19.4198C28.3078 19.2884 28.4595 19.1837 28.6273 19.1116C28.795 19.0396 28.9755 19.0016 29.158 19.0001C29.3406 18.9985 29.5217 19.0333 29.6906 19.1024C29.8596 19.1715 30.0132 19.2736 30.1423 19.4027C30.2714 19.5318 30.3735 19.6854 30.4426 19.8543C30.5117 20.0233 30.5465 20.2044 30.5449 20.3869C30.5433 20.5695 30.5054 20.7499 30.4333 20.9177C30.3613 21.0855 30.2565 21.2372 30.1252 21.364L23.319 28.1703L30.1252 34.9765C30.3757 35.2358 30.5143 35.5832 30.5111 35.9437C30.508 36.3042 30.3634 36.6491 30.1085 36.904C29.8535 37.159 29.5087 37.3036 29.1481 37.3067C28.7876 37.3098 28.4403 37.1712 28.181 36.9208L20.4026 29.1424Z" fill="white"/>
</g>
<defs>
<clipPath id="clip0_33_27">
<rect width="33" height="33" fill="white" transform="translate(42 42) rotate(180)"/>
</clipPath>
</defs>
</svg>
