<svg width="13" height="13" viewBox="0 0 13 13" fill="none" xmlns="http://www.w3.org/2000/svg">
<path d="M11.0695 5.9341H0.565173C0.41528 5.9341 0.271526 5.99374 0.165536 6.09989C0.059545 6.20605 0 6.35003 0 6.50016C0 6.65028 0.059545 6.79426 0.165536 6.90042C0.271526 7.00658 0.41528 7.06621 0.565173 7.06621H11.0695L6.94711 11.1939C6.84099 11.3002 6.78137 11.4444 6.78137 11.5947C6.78137 11.745 6.84099 11.8892 6.94711 11.9954C7.05324 12.1017 7.19717 12.1614 7.34725 12.1614C7.49734 12.1614 7.64127 12.1017 7.7474 11.9954L12.834 6.90093C12.8866 6.84834 12.9283 6.78588 12.9568 6.71711C12.9853 6.64834 13 6.57461 13 6.50016C13 6.4257 12.9853 6.35198 12.9568 6.28321C12.9283 6.21444 12.8866 6.15197 12.834 6.09939L7.7474 1.00487C7.64127 0.89858 7.49734 0.838867 7.34725 0.838867C7.19717 0.838867 7.05324 0.89858 6.94711 1.00487C6.84099 1.11116 6.78137 1.25532 6.78137 1.40564C6.78137 1.55596 6.84099 1.70012 6.94711 1.80641L11.0695 5.9341Z" fill="white"/>
</svg>
